# xmcd
#
# Track frame offsets: 
#        150
#        13980
#        32652
#        44739
#        59324
#        71671
#        85404
#        99513
#        116204
#        132954
#        150458
#        162229
#        179576
#        195168
#
# Disc length: 2873 seconds
#
# Revision: 0
# Processed by: cddbd v1.5.2PL0 Copyright (c) Steve Scherf et al.
# Submitted via: ExactAudioCopy v0.99pb5
#
DISCID=c10b370e
DTITLE=LeAnn Rimes - Lady And Gentlemen
DYEAR=2011
DGENRE=Country
TTITLE0=Lady And Gentlemen - 01.Swingin
TTITLE1=Lady And Gentlemen - 02.Wasted Days And Wasted Nights
TTITLE2=Lady And Gentlemen - 03.The Only Mama Tha LL Walk The Line
TTITLE3=Lady And Gentlemen - 04.I Cant Be Myslef
TTITLE4=Lady And Gentlemen - 05.16 Tons
TTITLE5=Lady And Gentlemen - 06.Help Me Make It Through The Nught
TTITLE6=Lady And Gentlemen - 07.Rose Colored Glasses
TTITLE7=Lady And Gentlemen - 08.A Good Hearted Woman
TTITLE8=Lady And Gentlemen - 09.When I Call Your Name
TTITLE9=Lady And Gentlemen - 10.He Stopped Loving Her Today
TTITLE10=Lady And Gentlemen - 11.Blue£¨Feat. The Time Jumperws£©
TTITLE11=Lady And Gentlemen - 12.The Bottle Let Me Down
TTITLE12=Lady And Gentlemen - 13.Crazy Women£¨Bonus Track£©
TTITLE13=Lady And Gentlemen - 14.Give£¨Bonus Track£©
EXTD=
EXTT0=
EXTT1=
EXTT2=
EXTT3=
EXTT4=
EXTT5=
EXTT6=
EXTT7=
EXTT8=
EXTT9=
EXTT10=
EXTT11=
EXTT12=
EXTT13=
PLAYORDER=
